HIERARCHY
ROOT newVegas:Hips
{
	OFFSET 0.000000 96.479958 0.000000
	CHANNELS 6 Xposition Yposition Zposition Xrotation Yrotation Zrotation
	JOINT newVegas:Pelvis
	{
		OFFSET 0.000000 0.000000 0.000000
		CHANNELS 3 Xrotation Yrotation Zrotation
		JOINT newVegas:LeftUpLeg
		{
			OFFSET 18.735201 -5.666702 -4.541200
			CHANNELS 3 Xrotation Yrotation Zrotation
			JOINT newVegas:LeftLeg
			{
				OFFSET -0.021200 -31.938179 0.493100
				CHANNELS 3 Xrotation Yrotation Zrotation
				JOINT newVegas:LeftFoot
				{
					OFFSET 0.021200 -31.938179 -4.336299
					CHANNELS 3 Xrotation Yrotation Zrotation
					JOINT newVegas:LeftToeBase
					{
						OFFSET 0.943001 -26.722000 15.023500
						CHANNELS 3 Xrotation Yrotation Zrotation
						End Site
						{
							OFFSET 0.000000 30.670183 0.000000
						}
					}
				}
				JOINT newVegas:Left_PantLeg
				{
					OFFSET 0.663870 -9.044666 -1.108900
					CHANNELS 3 Xrotation Yrotation Zrotation
					End Site
					{
						OFFSET 1.415995 20.635357 0.000000
					}
				}
			}
		}
		JOINT newVegas:RightUpLeg
		{
			OFFSET -18.735201 -5.666702 -4.541200
			CHANNELS 3 Xrotation Yrotation Zrotation
			JOINT newVegas:RightLeg
			{
				OFFSET 0.018946 -31.938133 0.493100
				CHANNELS 3 Xrotation Yrotation Zrotation
				JOINT newVegas:RightFoot
				{
					OFFSET -0.018946 -31.938126 -4.336299
					CHANNELS 3 Xrotation Yrotation Zrotation
					JOINT newVegas:RightToeBase
					{
						OFFSET -0.943001 -26.722004 15.023500
						CHANNELS 3 Xrotation Yrotation Zrotation
						End Site
						{
							OFFSET 0.000000 30.670187 0.000000
						}
					}
				}
				JOINT newVegas:Right_PantLeg
				{
					OFFSET -0.661674 -9.044716 -1.108900
					CHANNELS 3 Xrotation Yrotation Zrotation
					End Site
					{
						OFFSET -1.415958 20.635269 0.000000
					}
				}
			}
		}
	}
	JOINT newVegas:Spine
	{
		OFFSET 0.000000 10.199997 -0.299500
		CHANNELS 3 Xrotation Yrotation Zrotation
		JOINT newVegas:Spine1
		{
			OFFSET 0.000000 11.900002 -1.516600
			CHANNELS 3 Xrotation Yrotation Zrotation
			JOINT newVegas:Spine2
			{
				OFFSET 0.000000 13.600006 -2.842500
				CHANNELS 3 Xrotation Yrotation Zrotation
				JOINT newVegas:Neck
				{
					OFFSET 0.000000 9.624100 -2.890100
					CHANNELS 3 Xrotation Yrotation Zrotation
					JOINT newVegas:Head
					{
						OFFSET 0.000000 14.068802 -1.351900
						CHANNELS 3 Xrotation Yrotation Zrotation
						JOINT newVegas:Hair_Back
						{
							OFFSET 0.000000 3.231903 -17.524799
							CHANNELS 3 Xrotation Yrotation Zrotation
							End Site
							{
								OFFSET 0.000000 19.849884 0.000000
							}
						}
						JOINT newVegas:Hair_Front
						{
							OFFSET 0.000000 31.260406 4.573800
							CHANNELS 3 Xrotation Yrotation Zrotation
							JOINT newVegas:Hair_Front1
							{
								OFFSET 0.000000 2.284103 11.993300
								CHANNELS 3 Xrotation Yrotation Zrotation
								JOINT newVegas:Hair_Front2
								{
									OFFSET 0.000000 2.284103 11.993300
									CHANNELS 3 Xrotation Yrotation Zrotation
									End Site
									{
										OFFSET 0.000000 12.208862 0.000000
									}
								}
							}
						}
						JOINT newVegas:Jowel
						{
							OFFSET 0.000000 -7.458206 6.864100
							CHANNELS 3 Xrotation Yrotation Zrotation
							End Site
							{
								OFFSET 0.000000 19.849884 0.000000
							}
						}
					}
				}
				JOINT newVegas:LeftShoulder
				{
					OFFSET 15.263000 10.923401 -0.547700
					CHANNELS 3 Xrotation Yrotation Zrotation
					JOINT newVegas:LeftArm
					{
						OFFSET 25.438599 -2.830597 -13.032500
						CHANNELS 3 Xrotation Yrotation Zrotation
						JOINT newVegas:LeftForeArm
						{
							OFFSET 29.960503 0.000000 0.000000
							CHANNELS 3 Xrotation Yrotation Zrotation
							JOINT newVegas:LeftHand
							{
								OFFSET 27.849251 0.000000 0.000000
								CHANNELS 3 Xrotation Yrotation Zrotation
								JOINT newVegas:LeftHandThumb1
								{
									OFFSET 4.487587 -3.305161 6.305391
									CHANNELS 3 Xrotation Yrotation Zrotation
									JOINT newVegas:LeftHandThumb2
									{
										OFFSET 5.480453 -3.164139 3.164143
										CHANNELS 3 Xrotation Yrotation Zrotation
										JOINT newVegas:LeftHandThumb3
										{
											OFFSET 5.159721 -2.978973 2.978967
											CHANNELS 3 Xrotation Yrotation Zrotation
											End Site
											{
												OFFSET 2.494507 5.926697 1.738678
											}
										}
									}
								}
								JOINT newVegas:LeftHandIndex1
								{
									OFFSET 18.578728 -0.527832 5.208049
									CHANNELS 3 Xrotation Yrotation Zrotation
									JOINT newVegas:LeftHandIndex2
									{
										OFFSET 3.192009 0.000000 0.000000
										CHANNELS 3 Xrotation Yrotation Zrotation
										JOINT newVegas:LeftHandIndex3
										{
											OFFSET 3.835129 0.000000 0.000000
											CHANNELS 3 Xrotation Yrotation Zrotation
											End Site
											{
												OFFSET -0.034599 3.816971 0.371180
											}
										}
									}
								}
								JOINT newVegas:LeftHandMiddle1
								{
									OFFSET 18.476105 0.000000 0.000000
									CHANNELS 3 Xrotation Yrotation Zrotation
									JOINT newVegas:LeftHandMiddle2
									{
										OFFSET 3.324875 0.000000 0.000000
										CHANNELS 3 Xrotation Yrotation Zrotation
										JOINT newVegas:LeftHandMiddle3
										{
											OFFSET 4.596550 0.000000 0.000000
											CHANNELS 3 Xrotation Yrotation Zrotation
											End Site
											{
												OFFSET 0.057701 4.578827 0.399218
											}
										}
									}
								}
								JOINT newVegas:LeftHandRing1
								{
									OFFSET 17.732719 0.121887 -4.201567
									CHANNELS 3 Xrotation Yrotation Zrotation
									JOINT newVegas:LeftHandRing2
									{
										OFFSET 2.733170 0.000000 0.000000
										CHANNELS 3 Xrotation Yrotation Zrotation
										JOINT newVegas:LeftHandRing3
										{
											OFFSET 3.178268 0.000000 0.000000
											CHANNELS 3 Xrotation Yrotation Zrotation
											End Site
											{
												OFFSET 0.119102 3.170624 0.185394
											}
										}
									}
								}
								JOINT newVegas:LeftHandPinky1
								{
									OFFSET 15.989624 -0.606689 -7.535461
									CHANNELS 3 Xrotation Yrotation Zrotation
									JOINT newVegas:LeftHandPinky2
									{
										OFFSET 2.538986 0.000000 0.000000
										CHANNELS 3 Xrotation Yrotation Zrotation
										JOINT newVegas:LeftHandPinky3
										{
											OFFSET 2.593102 0.000000 0.000000
											CHANNELS 3 Xrotation Yrotation Zrotation
											End Site
											{
												OFFSET -0.150902 2.584198 0.152708
											}
										}
									}
								}
							}
							JOINT newVegas:Left_Sleeve
							{
								OFFSET 0.267448 -0.649796 0.577675
								CHANNELS 3 Xrotation Yrotation Zrotation
								End Site
								{
									OFFSET 0.000000 15.991241 0.000000
								}
							}
							JOINT newVegas:Left_CapeC
							{
								OFFSET 15.715958 -8.608795 -6.935905
								CHANNELS 3 Xrotation Yrotation Zrotation
								JOINT newVegas:Left_CapeC1
								{
									OFFSET 0.000000 -8.688499 0.000000
									CHANNELS 3 Xrotation Yrotation Zrotation
									End Site
									{
										OFFSET 0.000000 8.688499 0.000000
									}
								}
							}
						}
						JOINT newVegas:Left_CapeB
						{
							OFFSET 26.118385 -8.608795 -7.079235
							CHANNELS 3 Xrotation Yrotation Zrotation
							JOINT newVegas:Left_CapeB1
							{
								OFFSET 0.000000 -8.688499 0.000000
								CHANNELS 3 Xrotation Yrotation Zrotation
								End Site
								{
									OFFSET 0.000000 8.688499 0.000000
								}
							}
						}
						JOINT newVegas:Left_CapeA
						{
							OFFSET 5.115639 -8.608795 -10.395809
							CHANNELS 3 Xrotation Yrotation Zrotation
							JOINT newVegas:Left_CapeA1
							{
								OFFSET 0.000000 -8.688499 0.000000
								CHANNELS 3 Xrotation Yrotation Zrotation
								End Site
								{
									OFFSET 0.000000 8.688499 0.000000
								}
							}
						}
					}
				}
				JOINT newVegas:RightShoulder
				{
					OFFSET -15.263000 10.923401 -0.547700
					CHANNELS 3 Xrotation Yrotation Zrotation
					JOINT newVegas:RightArm
					{
						OFFSET -25.438599 -2.830597 -13.032500
						CHANNELS 3 Xrotation Yrotation Zrotation
						JOINT newVegas:RightForeArm
						{
							OFFSET -29.960503 0.000000 0.000000
							CHANNELS 3 Xrotation Yrotation Zrotation
							JOINT newVegas:RightHand
							{
								OFFSET -27.849251 0.000000 0.000000
								CHANNELS 3 Xrotation Yrotation Zrotation
								JOINT newVegas:RightHandThumb1
								{
									OFFSET -4.487587 -3.305161 6.305391
									CHANNELS 3 Xrotation Yrotation Zrotation
									JOINT newVegas:RightHandThumb2
									{
										OFFSET -5.480453 -3.164139 3.164143
										CHANNELS 3 Xrotation Yrotation Zrotation
										JOINT newVegas:RightHandThumb3
										{
											OFFSET -5.159721 -2.978973 2.978967
											CHANNELS 3 Xrotation Yrotation Zrotation
											End Site
											{
												OFFSET -2.494507 5.926697 1.738678
											}
										}
									}
								}
								JOINT newVegas:RightHandIndex1
								{
									OFFSET -18.578728 -0.527832 5.208049
									CHANNELS 3 Xrotation Yrotation Zrotation
									JOINT newVegas:RightHandIndex2
									{
										OFFSET -3.192009 0.000000 0.000000
										CHANNELS 3 Xrotation Yrotation Zrotation
										JOINT newVegas:RightHandIndex3
										{
											OFFSET -3.835129 0.000000 0.000000
											CHANNELS 3 Xrotation Yrotation Zrotation
											End Site
											{
												OFFSET 0.034599 3.816971 0.371180
											}
										}
									}
								}
								JOINT newVegas:RightHandMiddle1
								{
									OFFSET -18.476105 0.000000 0.000000
									CHANNELS 3 Xrotation Yrotation Zrotation
									JOINT newVegas:RightHandMiddle2
									{
										OFFSET -3.324875 0.000000 0.000000
										CHANNELS 3 Xrotation Yrotation Zrotation
										JOINT newVegas:RightHandMiddle3
										{
											OFFSET -4.596550 0.000000 0.000000
											CHANNELS 3 Xrotation Yrotation Zrotation
											End Site
											{
												OFFSET -0.057701 4.578827 0.399218
											}
										}
									}
								}
								JOINT newVegas:RightHandRing1
								{
									OFFSET -17.732719 0.121887 -4.201567
									CHANNELS 3 Xrotation Yrotation Zrotation
									JOINT newVegas:RightHandRing2
									{
										OFFSET -2.733170 0.000000 0.000000
										CHANNELS 3 Xrotation Yrotation Zrotation
										JOINT newVegas:RightHandRing3
										{
											OFFSET -3.178268 0.000000 0.000000
											CHANNELS 3 Xrotation Yrotation Zrotation
											End Site
											{
												OFFSET -0.119102 3.170624 0.185394
											}
										}
									}
								}
								JOINT newVegas:RightHandPinky1
								{
									OFFSET -15.989624 -0.606689 -7.535461
									CHANNELS 3 Xrotation Yrotation Zrotation
									JOINT newVegas:RightHandPinky2
									{
										OFFSET -2.538986 0.000000 0.000000
										CHANNELS 3 Xrotation Yrotation Zrotation
										JOINT newVegas:RightHandPinky3
										{
											OFFSET -2.593102 0.000000 0.000000
											CHANNELS 3 Xrotation Yrotation Zrotation
											End Site
											{
												OFFSET 0.150902 2.584198 0.152708
											}
										}
									}
								}
							}
							JOINT newVegas:Right_CapeC
							{
								OFFSET -15.715958 -8.608795 -6.935905
								CHANNELS 3 Xrotation Yrotation Zrotation
								JOINT newVegas:Right_CapeC1
								{
									OFFSET 0.000000 -8.688499 0.000000
									CHANNELS 3 Xrotation Yrotation Zrotation
									End Site
									{
										OFFSET 0.000000 8.688499 0.000000
									}
								}
							}
							JOINT newVegas:Right_Sleeve
							{
								OFFSET -0.267448 -0.649994 0.577675
								CHANNELS 3 Xrotation Yrotation Zrotation
								End Site
								{
									OFFSET 0.000000 15.991302 0.000000
								}
							}
						}
						JOINT newVegas:Right_CapeA
						{
							OFFSET -5.115540 -8.608795 -10.395824
							CHANNELS 3 Xrotation Yrotation Zrotation
							JOINT newVegas:Right_CapeA1
							{
								OFFSET 0.000000 -8.688499 0.000000
								CHANNELS 3 Xrotation Yrotation Zrotation
								End Site
								{
									OFFSET 0.000000 8.688499 0.000000
								}
							}
						}
						JOINT newVegas:Right_CapeB
						{
							OFFSET -26.118187 -8.608795 -7.079266
							CHANNELS 3 Xrotation Yrotation Zrotation
							JOINT newVegas:Right_CapeB1
							{
								OFFSET 0.000000 -8.688499 0.000000
								CHANNELS 3 Xrotation Yrotation Zrotation
								End Site
								{
									OFFSET 0.000000 8.688499 0.000000
								}
							}
						}
					}
				}
				JOINT newVegas:Left_Collar
				{
					OFFSET 18.625099 8.655502 8.828100
					CHANNELS 3 Xrotation Yrotation Zrotation
					JOINT newVegas:Left_Collar1
					{
						OFFSET 14.783401 10.540405 -1.259500
						CHANNELS 3 Xrotation Yrotation Zrotation
						End Site
						{
							OFFSET 0.000000 18.199875 0.000000
						}
					}
				}
				JOINT newVegas:Collar_Back
				{
					OFFSET 0.000000 15.630707 -20.132601
					CHANNELS 3 Xrotation Yrotation Zrotation
					End Site
					{
						OFFSET 0.000000 22.523010 0.000000
					}
				}
				JOINT newVegas:Left_Peck
				{
					OFFSET 17.239599 -5.132599 25.482599
					CHANNELS 3 Xrotation Yrotation Zrotation
					End Site
					{
						OFFSET 0.000000 22.523010 0.000000
					}
				}
				JOINT newVegas:Right_Peck
				{
					OFFSET -17.239599 -5.132202 25.482599
					CHANNELS 3 Xrotation Yrotation Zrotation
					End Site
					{
						OFFSET 0.000000 22.523010 0.000000
					}
				}
				JOINT newVegas:Right_Collar
				{
					OFFSET -18.625099 8.655792 8.828100
					CHANNELS 3 Xrotation Yrotation Zrotation
					JOINT newVegas:Right_Collar1
					{
						OFFSET -14.783401 10.539993 -1.259500
						CHANNELS 3 Xrotation Yrotation Zrotation
						End Site
						{
							OFFSET 0.000000 18.199631 0.000000
						}
					}
				}
			}
		}
		JOINT newVegas:Belly
		{
			OFFSET 0.000000 -6.540398 9.014299
			CHANNELS 3 Xrotation Yrotation Zrotation
			End Site
			{
				OFFSET 0.000000 11.566666 0.000000
			}
		}
	}
	JOINT newVegas:ElvisFacialAnim_Joint
	{
		OFFSET 1.000000 -95.330101 -8.825800
		CHANNELS 3 Xrotation Yrotation Zrotation
		End Site
		{
			OFFSET 0.000000 35.315800 0.000000
		}
	}
}
MOTION
Frames: 4
Frame Time: 0.033333
-1.335782 263.763306 -6.564079 40.498749 -7.174385 -1.538010 -0.000002 0.000000 -0.000000 22.020687 8.771183 8.465301 84.442148 -3.232068 -4.521703 27.151049 -6.922093 2.010748 -0.000000 0.000000 0.000000 -0.000003 -0.000000 0.000001 20.826369 3.687042 -11.632227 66.466388 6.791202 0.024802 49.895522 4.961312 13.262913 -0.000000 -0.000000 -0.000001 0.000000 0.000000 -0.000000 13.074812 12.088065 -1.881224 -12.723108 3.901811 -2.441444 -26.864710 -2.065851 -4.856446 -2.017874 -1.911159 0.401281 -2.017865 -1.911157 0.401280 0.000001 0.000000 -0.000000 -2.018015 -1.911165 0.401278 -2.017722 -1.911148 0.401284 -0.000000 -0.000000 0.000000 0.000001 0.000000 -0.000000 39.146881 -19.203029 56.833649 -106.176247 -30.531909 -21.354185 -0.000004 -25.059517 -0.000001 -60.219039 -13.050140 -18.098278 13.462404 -2.175014 -16.801007 11.132756 51.116777 3.616694 -0.000001 -0.000004 -0.000003 17.487233 -6.607363 -89.278782 7.338823 5.659392 -104.754960 0.000000 0.000000 -0.000002 15.822089 9.122235 -85.022987 7.210644 5.691425 -103.459006 -0.000000 0.000002 -0.000004 13.154253 8.025235 -91.543154 7.770086 5.528429 -109.176927 0.000001 0.000001 -0.000000 9.733239 9.245571 -84.967724 4.876950 5.769667 -80.400295 -0.000000 0.000000 0.000001 -0.000002 0.000002 -0.000003 -0.000002 0.000002 -0.000003 -0.000003 0.000002 -0.000003 -0.000002 0.000002 -0.000003 -0.000001 0.000001 -0.000004 -0.000002 0.000002 -0.000003 -0.000001 0.000002 -0.000003 9.264930 41.705535 -33.241814 -83.190010 17.276304 21.356711 0.000029 55.914835 -0.000024 -32.925036 7.010495 -16.856208 11.825147 3.921271 17.419487 10.961409 -53.032775 -4.062434 0.000001 -0.000003 -0.000001 16.424844 7.720387 88.514061 5.839960 -4.504789 104.728097 0.000000 0.000001 -0.000003 14.640085 -7.991406 84.273258 5.738033 -4.530252 103.434315 0.000001 0.000000 -0.000001 11.846958 -6.853339 90.773590 6.182879 -4.400669 109.143042 -0.000001 0.000001 0.000000 8.551043 -8.034118 84.216308 3.882782 -4.592449 80.418313 0.000000 0.000002 -0.000000 -0.000000 -0.000000 -0.000002 -0.000000 -0.000002 -0.000001 0.000000 0.000000 -0.000002 0.000002 -0.000001 0.000000 0.000002 0.000000 0.000000 0.000002 -0.000001 0.000000 0.000002 -0.000000 0.000000 -0.000001 -0.000000 0.000000 -0.000001 -0.000000 0.000000 -0.000001 -0.000000 0.000000 -0.000001 -0.000000 0.000000 -0.000001 -0.000000 0.000000 -0.000001 -0.000000 0.000000 -0.000001 -0.000000 0.000000 -0.000002 0.000000 -0.000000 -0.000002 0.000000 -0.000000 
-0.499402 253.297546 7.218739 36.544452 -6.903667 -1.705939 0.000003 0.000000 0.000000 -19.923418 1.706381 13.323203 94.232350 -5.300908 -3.245018 48.654019 1.216831 4.595396 0.000001 -0.000000 -0.000000 0.000000 -0.000000 0.000000 -8.312251 10.633981 -5.615907 80.413333 4.697687 -0.544677 50.112309 -3.097505 17.869009 0.000000 0.000000 -0.000002 0.000000 0.000000 -0.000000 14.742009 8.479596 -0.672844 -12.935972 5.275395 -1.069069 -25.725416 -0.622495 -3.266172 -1.651282 -1.696389 0.303915 -1.651282 -1.696389 0.303916 0.000001 -0.000000 0.000000 -1.651427 -1.696392 0.303912 -1.651139 -1.696388 0.303920 -0.000000 0.000000 -0.000000 0.000001 -0.000000 -0.000000 36.897297 -21.553507 52.411218 -105.655035 -16.864174 -21.404664 0.000017 -56.494086 0.000015 -56.934794 -1.121749 -3.665264 13.356931 -2.155182 -17.357094 11.132766 51.116777 3.616692 0.000002 -0.000007 -0.000005 18.271890 -4.923994 -92.045453 7.338822 5.659392 -104.754960 0.000000 -0.000002 -0.000005 16.551736 8.676434 -87.687615 7.211770 5.691156 -103.470426 -0.000000 0.000000 -0.000001 13.514576 7.686618 -94.130361 7.771580 5.527913 -109.192486 0.000002 -0.000002 -0.000001 9.600470 11.524960 -87.336700 4.876952 5.769670 -80.400274 -0.000001 -0.000002 0.000002 0.000000 0.000001 0.000003 0.000000 0.000001 0.000003 -0.000000 0.000001 0.000003 0.000001 -0.000001 0.000003 0.000001 -0.000001 0.000003 0.000001 -0.000001 0.000003 -0.000001 -0.000000 0.000002 9.274884 41.236543 -33.207673 -81.633601 19.921319 20.499899 0.000013 66.992251 -0.000032 -34.773487 -3.781007 -18.293866 11.856294 4.026290 17.087197 10.961403 -53.032768 -4.062427 0.000005 -0.000004 0.000001 16.471585 7.650449 88.172155 5.839952 -4.504791 104.728062 0.000000 0.000000 -0.000002 14.582794 -8.047943 83.931065 5.738027 -4.530257 103.434308 0.000002 -0.000005 -0.000002 11.816634 -6.894831 90.439320 6.182885 -4.400673 109.143049 -0.000000 0.000001 0.000001 8.510313 -7.911507 83.887550 3.882786 -4.592460 80.418326 0.000001 -0.000005 -0.000000 -0.000000 -0.000000 0.000000 -0.000002 -0.000001 0.000000 -0.000000 0.000000 0.000000 0.000000 -0.000001 0.000001 0.000000 0.000000 0.000001 0.000000 -0.000001 0.000001 0.000000 -0.000000 0.000001 0.000001 0.000000 -0.000000 0.000001 0.000000 -0.000000 0.000001 0.000000 -0.000000 0.000001 0.000000 -0.000000 0.000001 0.000000 -0.000000 0.000001 0.000000 -0.000000 0.000001 0.000000 -0.000000 -0.000000 0.000000 -0.000000 0.000003 0.000000 0.000000 
0.243137 242.715942 24.502115 31.964483 -8.099121 -2.484170 -0.000002 -0.000000 -0.000000 -40.393595 8.590886 17.067693 82.966779 4.303832 4.268006 69.093975 -5.648161 17.916554 0.000000 0.000000 -0.000000 -0.000001 0.000001 -0.000000 -18.732350 14.364263 -4.633601 75.247197 -1.883407 -0.977453 51.087107 -5.180455 18.925411 -0.000003 -0.000000 -0.000000 0.000000 0.000000 -0.000001 16.884567 5.727309 0.756826 -13.653157 6.687120 0.391871 -24.404438 0.918878 -1.596936 -1.270567 -1.419107 0.250245 -1.270566 -1.419107 0.250245 0.000001 -0.000000 0.000000 -1.270570 -1.419108 0.250245 -1.270565 -1.419105 0.250245 -0.000000 -0.000000 0.000000 0.000001 -0.000000 0.000000 34.691139 -22.899963 49.051526 -108.182786 -9.313464 -22.852181 0.000043 -74.336958 0.000047 -57.191001 8.961175 5.293070 13.359762 -2.129649 -18.095340 11.132774 51.116781 3.616680 -0.000002 -0.000000 -0.000005 18.138262 -4.698549 -95.117044 7.338816 5.659386 -104.754932 0.000001 0.000002 0.000002 17.169026 8.118631 -90.641050 7.213582 5.690730 -103.488615 0.000001 0.000001 -0.000002 13.820157 7.272198 -97.178224 7.773927 5.527095 -109.216870 0.000001 -0.000002 -0.000002 9.960257 12.783384 -90.152002 4.876963 5.769657 -80.400274 -0.000000 -0.000005 -0.000001 0.000001 0.000001 0.000002 0.000001 0.000001 0.000002 0.000000 0.000000 0.000002 0.000002 0.000000 -0.000001 0.000002 0.000000 -0.000001 0.000002 0.000000 -0.000001 0.000001 0.000001 -0.000001 9.347699 40.717394 -33.261467 -83.178932 23.972214 20.764316 0.000023 74.138370 -0.000034 -37.240319 -13.839164 -17.654480 11.892122 4.143707 16.711835 10.961414 -53.032778 -4.062419 0.000002 -0.000002 -0.000001 16.523331 7.571365 87.786591 5.839959 -4.504790 104.728090 -0.000002 -0.000000 0.000000 14.517335 -8.111073 83.544975 5.738032 -4.530260 103.434288 0.000002 -0.000000 0.000001 11.778272 -6.941392 90.062089 6.182886 -4.400670 109.143056 -0.000000 0.000001 0.000002 8.466044 -7.772819 83.516924 3.882778 -4.592456 80.418306 0.000001 -0.000000 0.000000 0.000001 0.000002 0.000002 0.000001 0.000002 0.000004 0.000001 0.000002 0.000002 0.000002 0.000002 -0.000001 0.000002 0.000003 -0.000002 0.000002 0.000002 -0.000001 0.000002 0.000003 -0.000002 0.000000 -0.000000 -0.000000 0.000000 -0.000000 -0.000000 0.000000 -0.000000 -0.000000 0.000000 -0.000000 -0.000000 0.000000 -0.000000 -0.000000 0.000000 -0.000000 -0.000000 0.000000 -0.000000 -0.000000 -0.000001 -0.000000 -0.000000 -0.000002 -0.000000 -0.000000 
0.077628 235.583740 40.810425 25.956572 -10.172313 -1.230912 0.000001 -0.000000 0.000000 -49.486916 13.243680 29.546551 76.219925 -7.087572 -0.418953 72.630490 0.282136 15.039308 -0.000000 0.000000 -0.000000 0.000003 0.000001 0.000000 -20.024139 15.191099 -11.305995 60.826974 -3.116986 1.903086 65.839274 2.520911 15.421341 0.000000 0.000002 0.000001 0.000001 -0.000001 -0.000001 19.146552 3.179303 0.129331 -13.469119 7.275748 1.138713 -22.816677 2.029220 -0.328083 -0.863914 -1.085210 0.253493 -0.863905 -1.085209 0.253494 -0.000001 -0.000000 -0.000000 -0.863910 -1.085207 0.253493 -0.863763 -1.085212 0.253498 0.000000 0.000000 -0.000000 -0.000001 -0.000000 0.000000 31.732116 -25.072410 43.354831 -107.412948 -8.332562 -25.576098 0.000413 -83.829753 0.000397 -57.736320 14.565754 12.050256 13.418433 -2.104106 -18.924337 11.132760 51.116767 3.616697 0.000003 0.000000 -0.000001 19.851578 -5.473706 -98.291258 7.338823 5.659390 -104.754960 0.000000 0.000000 -0.000001 17.610687 7.550084 -93.444105 7.216777 5.689965 -103.520792 -0.000001 -0.000001 -0.000004 14.046509 6.851239 -100.214298 7.777971 5.525699 -109.258834 -0.000001 -0.000001 -0.000000 10.554749 12.954448 -92.994501 4.876941 5.769662 -80.400274 0.000001 -0.000003 -0.000002 0.000000 0.000000 -0.000002 0.000000 0.000000 -0.000002 -0.000000 -0.000000 -0.000002 0.000001 0.000000 -0.000000 0.000002 0.000000 0.000001 0.000001 0.000000 -0.000000 0.000000 0.000001 -0.000000 9.315912 40.147528 -33.120465 -84.855149 25.715505 22.730161 -0.000010 79.777750 0.000005 -40.134174 -20.469145 -16.930903 11.926601 4.253446 16.357261 10.961394 -53.032775 -4.062440 0.000003 -0.000003 0.000001 16.571171 7.496555 87.423020 5.839955 -4.504791 104.728103 -0.000000 -0.000000 0.000001 14.454786 -8.170004 83.180646 5.738035 -4.530264 103.434288 -0.000000 -0.000001 -0.000002 11.741514 -6.985046 89.706181 6.182890 -4.400673 109.143042 -0.000001 0.000001 0.000003 8.425925 -7.641676 83.167484 3.882783 -4.592456 80.418313 0.000001 -0.000000 -0.000000 0.000001 0.000000 -0.000002 0.000001 -0.000002 -0.000003 0.000001 -0.000000 -0.000002 -0.000000 0.000003 -0.000002 -0.000000 0.000004 -0.000002 -0.000000 0.000003 -0.000002 0.000000 0.000004 -0.000002 0.000000 0.000000 -0.000000 0.000000 0.000000 -0.000000 0.000000 0.000000 -0.000000 0.000000 0.000000 -0.000000 0.000000 0.000000 -0.000000 0.000000 0.000000 -0.000000 0.000000 0.000000 -0.000000 0.000002 0.000000 -0.000000 0.000001 -0.000000 0.000000 
